<svg xmlns="http://www.w3.org/2000/svg" width="26" height="22" viewBox="0 0 22 18" fill="none">
    <path fill-rule="evenodd" clip-rule="evenodd" d="M21.1394 16.6828V15.0435H20.7523V15.9944C20.6136 15.819 20.3975 15.7199 20.1716 15.7281C19.6371 15.7281 19.2038 16.1538 19.2038 16.679C19.2038 17.2042 19.6371 17.6299 20.1716 17.6299C20.3975 17.6381 20.6136 17.539 20.7523 17.3636V17.5843H21.1394V16.6828ZM9.1385 15.7735H9.80048L9.80435 16.1348H9.14624V16.964C9.14624 17.1466 9.21979 17.2683 9.41335 17.2683C9.539 17.2642 9.66154 17.2289 9.76951 17.1656L9.88565 17.5041C9.73473 17.5967 9.56028 17.6455 9.38239 17.6449C8.90622 17.6449 8.73976 17.3938 8.73976 16.9716V16.1348H8.36425V15.7735H8.73202V15.222H9.1385V15.7735ZM3.78645 16.4505V17.5916L3.37997 17.5992V16.5874C3.37997 16.2793 3.24835 16.1082 2.97349 16.1082C2.84457 16.102 2.71952 16.1524 2.63206 16.2457C2.54461 16.3389 2.50377 16.4655 2.52056 16.5912V17.5992H2.11408V16.5874C2.11408 16.2793 1.97858 16.1082 1.71147 16.1082C1.58234 16.1013 1.45685 16.1515 1.36923 16.2449C1.28162 16.3384 1.24103 16.4654 1.25853 16.5912V17.5916H0.852051V15.7735H1.25466V15.9979C1.37381 15.8198 1.58002 15.7171 1.79663 15.7278C2.04541 15.7173 2.28011 15.8414 2.40829 16.0511C2.54888 15.8349 2.79809 15.711 3.05866 15.7278C3.25638 15.7164 3.44954 15.7892 3.58884 15.9275C3.72815 16.0658 3.80014 16.2564 3.78645 16.4505ZM13.2341 15.7274C13.0342 15.7216 12.847 15.8238 12.7464 15.9936V15.773H12.3476V17.5912H12.7502V16.5718C12.7502 16.2713 12.8819 16.1039 13.1374 16.1039C13.2235 16.1028 13.309 16.1183 13.389 16.1496L13.5129 15.7692C13.4209 15.7369 13.3241 15.7202 13.2264 15.7198L13.2341 15.7274ZM7.28794 15.7271C7.55292 15.7182 7.81494 15.7842 8.04284 15.9173L7.86476 16.2368C7.68796 16.1369 7.48802 16.0832 7.28407 16.0808C7.06341 16.0808 6.93179 16.1721 6.93179 16.2939C6.93179 16.4156 7.07115 16.4498 7.24536 16.4726L7.43892 16.4992C7.84153 16.5563 8.08542 16.697 8.08542 17.0432C8.08542 17.3893 7.77572 17.6365 7.24149 17.6365C6.95556 17.6442 6.67466 17.5616 6.44014 17.4007L6.6337 17.0926C6.81134 17.2221 7.02815 17.2891 7.24923 17.2828C7.52409 17.2828 7.6712 17.2029 7.6712 17.0622C7.6712 16.9595 7.56667 16.9024 7.34601 16.872L7.15245 16.8454C6.73823 16.7883 6.5137 16.6057 6.5137 16.3091C6.5137 15.9477 6.81952 15.7271 7.28794 15.7271ZM18.8262 15.7274C18.6262 15.7216 18.4391 15.8238 18.3384 15.9936V15.773H17.9397V17.5912H18.3423V16.5718C18.3423 16.2713 18.4739 16.1039 18.7294 16.1039C18.8155 16.1028 18.901 16.1183 18.9811 16.1496L19.1049 15.7692C19.013 15.7369 18.9161 15.7202 18.8185 15.7198L18.8262 15.7274ZM13.9184 17.3676C13.7305 17.1866 13.6289 16.9362 13.6386 16.6779V16.6703C13.6289 16.4119 13.7305 16.1615 13.9184 15.9806C14.1062 15.7996 14.363 15.7048 14.6257 15.7194C14.8675 15.7073 15.1051 15.7847 15.2916 15.9362L15.098 16.2557C14.9589 16.1514 14.7891 16.0941 14.6141 16.0921C14.3055 16.1167 14.0678 16.3699 14.0678 16.6741C14.0678 16.9783 14.3055 17.2315 14.6141 17.256C14.7891 17.2541 14.9589 17.1968 15.098 17.0925L15.2916 17.412C15.1051 17.5635 14.8675 17.6409 14.6257 17.6288C14.363 17.6434 14.1062 17.5486 13.9184 17.3676ZM17.4091 16.6777V15.7724H17.0065V15.993C16.8678 15.8177 16.6517 15.7186 16.4258 15.7268C15.8913 15.7268 15.458 16.1525 15.458 16.6777C15.458 17.2028 15.8913 17.6286 16.4258 17.6286C16.6517 17.6368 16.8678 17.5377 17.0065 17.3623V17.5829H17.4091V16.6777ZM16.4908 16.1621C16.1867 16.1508 15.9292 16.3805 15.9113 16.6789C15.9011 16.8309 15.9558 16.9801 16.0624 17.0906C16.169 17.2011 16.3177 17.2628 16.4727 17.2609C16.777 17.2593 17.0242 17.0191 17.0291 16.7202C17.034 16.4212 16.7948 16.1733 16.4908 16.1621ZM11.0525 15.7263C10.518 15.7337 10.0908 16.1654 10.0983 16.6905C10.1058 17.2157 10.5451 17.6355 11.0796 17.6281C11.3581 17.6422 11.632 17.554 11.8481 17.3809L11.6545 17.088C11.5017 17.2084 11.3123 17.2754 11.1164 17.2782C10.8397 17.3016 10.5943 17.1043 10.5628 16.8332H11.9371V16.681C11.9371 16.1105 11.5771 15.7301 11.0583 15.7301L11.0525 15.7263ZM11.3797 16.207C11.2919 16.1243 11.1742 16.0792 11.0525 16.0818H11.0448C10.7861 16.0731 10.5677 16.2691 10.5531 16.523H11.5209C11.5184 16.4034 11.4676 16.2898 11.3797 16.207ZM21.8843 17.3395C21.8624 17.3309 21.839 17.3264 21.8155 17.3262H21.8166C21.7894 17.3251 21.7624 17.3296 21.7372 17.3395C21.715 17.3484 21.6946 17.3613 21.6772 17.3775C21.6602 17.3939 21.6464 17.4132 21.6365 17.4346C21.617 17.4795 21.617 17.5304 21.6365 17.5753C21.668 17.6421 21.7358 17.685 21.8107 17.6856C21.8361 17.6856 21.8611 17.6804 21.8843 17.6704C21.9065 17.6615 21.9269 17.6486 21.9443 17.6323C21.9613 17.616 21.9751 17.5966 21.985 17.5753C22.0048 17.5304 22.0048 17.4795 21.985 17.4346C21.9751 17.4132 21.9613 17.3939 21.9443 17.3775C21.9269 17.3613 21.9065 17.3484 21.8843 17.3395ZM21.8127 17.6479C21.8314 17.6478 21.85 17.6439 21.8672 17.6365C21.8838 17.6292 21.8989 17.6188 21.9117 17.606C21.9619 17.5522 21.9619 17.4697 21.9117 17.4159C21.8989 17.403 21.8838 17.3927 21.8672 17.3854C21.8495 17.3778 21.8303 17.374 21.811 17.374C21.7917 17.3741 21.7726 17.378 21.7549 17.3854C21.7375 17.3924 21.7217 17.4028 21.7084 17.4159C21.6582 17.4697 21.6582 17.5522 21.7084 17.606C21.7217 17.6191 21.7375 17.6294 21.7549 17.6365C21.7744 17.6447 21.7956 17.6486 21.8168 17.6479H21.8127ZM21.8727 17.4369C21.8582 17.4262 21.8404 17.4208 21.8224 17.4216L21.7411 17.4235V17.5909H21.7778V17.5281H21.7953L21.8475 17.5909H21.892L21.8359 17.5281C21.851 17.5271 21.8653 17.521 21.8766 17.511C21.8857 17.502 21.8907 17.4896 21.8901 17.4768C21.8912 17.4615 21.8847 17.4466 21.8727 17.4369ZM21.7797 17.4542V17.4998H21.8223C21.8299 17.502 21.838 17.502 21.8456 17.4998C21.8483 17.4944 21.8483 17.4881 21.8456 17.4827C21.8483 17.4773 21.8483 17.471 21.8456 17.4656C21.838 17.4634 21.8299 17.4634 21.8223 17.4656L21.7797 17.4542ZM20.2298 16.1648C19.9257 16.1536 19.6683 16.3833 19.6504 16.6817C19.6401 16.8337 19.6949 16.9829 19.8015 17.0934C19.9081 17.2039 20.0568 17.2656 20.2117 17.2637C20.516 17.2621 20.7632 17.0219 20.7681 16.723C20.773 16.424 20.5339 16.1761 20.2298 16.1648ZM6.05638 16.6815V15.7724H5.65377V15.993C5.51506 15.8177 5.29897 15.7186 5.07308 15.7268C4.53858 15.7268 4.10527 16.1525 4.10527 16.6777C4.10527 17.2028 4.53858 17.6286 5.07308 17.6286C5.29897 17.6368 5.51506 17.5377 5.65377 17.3623V17.5829H6.05638V16.6815ZM5.13795 16.1648C4.83387 16.1536 4.57644 16.3833 4.55854 16.6817H4.55467C4.54433 16.8343 4.59962 16.9842 4.70706 17.0948C4.81451 17.2054 4.96426 17.2667 5.11987 17.2637C5.42415 17.2621 5.67137 17.0219 5.67629 16.723C5.6812 16.424 5.44202 16.1761 5.13795 16.1648Z" fill="black"/>
    <path d="M7.97412 1.48535H13.8853V11.7352H7.97412V1.48535Z" fill="#FF5F00"/>
    <path d="M8.34968 6.61053C8.34747 4.61007 9.299 2.7198 10.9299 1.48468C8.16011 -0.615625 4.18251 -0.309697 1.79251 2.18746C-0.597502 4.68462 -0.597502 8.53462 1.79251 11.0318C4.18251 13.5289 8.16011 13.8349 10.9299 11.7346C9.29952 10.4998 8.34805 8.61035 8.34968 6.61053Z" fill="#EB001B"/>
    <path d="M21.8606 6.61025C21.8606 9.10589 20.3837 11.3824 18.0572 12.473C15.7307 13.5636 12.963 13.2767 10.9297 11.7343C12.5594 10.4985 13.5109 8.60928 13.5109 6.60935C13.5109 4.60942 12.5594 2.72018 10.9297 1.48441C12.963 -0.058036 15.7307 -0.344881 18.0572 0.745696C20.3837 1.83627 21.8606 4.11281 21.8606 6.60844V6.61025Z" fill="#F79E1B"/>
    <path fill-rule="evenodd" clip-rule="evenodd" d="M21.6498 10.3945V10.8632L21.6104 10.8666V10.5117L21.5372 10.8164H21.4865L21.4134 10.5117V10.8632H21.3646V10.3945H21.4246L21.5034 10.7293L21.5822 10.3945H21.6498ZM21.2157 10.4749V10.8633H21.1763V10.4749H21.0806V10.3946H21.3039V10.4749H21.2157Z" fill="#F79E1B"/>
</svg>