<svg xmlns="http://www.w3.org/2000/svg" width="94" height="22" viewBox="0 0 30 7" fill="none">
    <path d="M16.7641 5.92687V0.867367H17.8846V4.96087H19.8331V5.92687H16.7641ZM21.4591 5.92687V0.867367H20.3386V5.92687H21.4591ZM24.4546 1.81087C24.5761 1.81087 24.6376 1.87087 24.6376 1.99237V2.89987C24.6376 3.02137 24.5761 3.08137 24.4546 3.08137H23.2756V1.81087H24.4546ZM25.7806 5.92687L25.1221 3.96637C25.5466 3.82537 25.7596 3.48937 25.7596 2.95687V1.93537C25.7596 1.59187 25.6666 1.32787 25.4806 1.14487C25.2946 0.960367 25.0291 0.868867 24.6826 0.868867H22.1551V5.92837H23.2756V4.02637H23.9941L24.5731 5.92837H25.7806V5.92687ZM5.23057 4.41187C5.41957 4.51687 5.59357 4.64587 5.74957 4.79887L6.88657 5.92537H7.65157C9.06607 5.92537 10.2121 4.78387 10.2016 3.37837C10.1911 1.98637 9.02557 0.871867 7.61857 0.871867H2.55007C1.13557 0.871867 -0.0104284 2.01337 7.15813e-05 3.41737C0.0105716 4.81087 1.17607 5.92537 2.58307 5.92537H3.95707C4.03657 5.92537 4.11157 5.95687 4.16857 6.01237L5.10157 6.93637H7.14157L5.11507 4.92937C4.77907 4.59637 4.32457 4.41037 3.85057 4.41037H2.55007C1.98607 4.41037 1.53007 3.95737 1.53007 3.39937C1.53007 2.84137 1.98607 2.38837 2.55007 2.38837H7.65007C8.21407 2.38837 8.67007 2.84137 8.67007 3.39937C8.67007 3.95737 8.21407 4.41037 7.65007 4.41037H5.23057V4.41187ZM13.5721 1.97137C13.5721 1.84987 13.6336 1.78987 13.7551 1.78987H14.8246C14.9461 1.78987 15.0076 1.84987 15.0076 1.97137V4.82437C15.0076 4.94587 14.9461 5.00587 14.8246 5.00587H13.7551C13.6336 5.00587 13.5721 4.94587 13.5721 4.82437V1.97137ZM15.0511 5.95687C15.3976 5.95687 15.6631 5.86537 15.8491 5.68087C16.0351 5.49637 16.1281 5.23387 16.1281 4.89037V1.90537C16.1281 1.56187 16.0351 1.29787 15.8491 1.11487C15.6646 0.930367 15.3976 0.838867 15.0511 0.838867H13.5286C13.1821 0.838867 12.9151 0.930367 12.7306 1.11487C12.5446 1.29937 12.4516 1.56187 12.4516 1.90537V4.88887C12.4516 5.23237 12.5446 5.49637 12.7306 5.67937C12.9166 5.86387 13.1821 5.95537 13.5286 5.95537H13.8136L14.2786 6.93637H15.4576L14.9926 5.95537H15.0511M27.4441 1.97137C27.4441 1.84987 27.5056 1.78987 27.6271 1.78987H28.6966C28.8181 1.78987 28.8796 1.84987 28.8796 1.97137V4.82437C28.8796 4.94587 28.8181 5.00587 28.6966 5.00587H27.6271C27.5056 5.00587 27.4441 4.94587 27.4441 4.82437V1.97137ZM28.9231 5.95687C29.2696 5.95687 29.5351 5.86537 29.7211 5.68087C29.9071 5.49637 30.0001 5.23387 30.0001 4.89037V1.90537C30.0001 1.56187 29.9071 1.29787 29.7211 1.11487C29.5366 0.930367 29.2696 0.838867 28.9231 0.838867H27.3991C27.0526 0.838867 26.7856 0.930367 26.6011 1.11487C26.4151 1.29937 26.3221 1.56187 26.3221 1.90537V4.88887C26.3221 5.23237 26.4151 5.49637 26.6011 5.67937C26.7871 5.86387 27.0526 5.95537 27.3991 5.95537H28.9231" fill="black"/>
</svg>