<svg xmlns="http://www.w3.org/2000/svg" width="61" height="22" viewBox="0 0 34 12" fill="none">
    <path fill-rule="evenodd" clip-rule="evenodd" d="M13.6986 0.540527L11.9768 11.1892H14.7287L16.4513 0.540527H13.6986Z" fill="#135191"/>
    <mask id="mask0_2745_2264" style="mask-type:luminance" maskUnits="userSpaceOnUse" x="16" y="0" width="9" height="12">
        <path fill-rule="evenodd" clip-rule="evenodd" d="M16.4534 0.35498H24.7132V11.3469H16.4534V0.35498Z" fill="white"/>
    </mask>
    <g mask="url(#mask0_2745_2264)">
        <path fill-rule="evenodd" clip-rule="evenodd" d="M24.7132 0.802075C24.1675 0.586177 23.313 0.35498 22.2458 0.35498C19.5261 0.35498 17.6101 1.79911 17.594 3.86883C17.5786 5.39967 18.9619 6.25305 20.0057 6.7622C21.077 7.28409 21.4373 7.61729 21.4325 8.08308C21.4252 8.79707 20.5764 9.12347 19.7857 9.12347C18.6838 9.12347 18.0986 8.96197 17.1941 8.56417L16.8395 8.39503L16.4534 10.7792C17.0966 11.0759 18.2856 11.3343 19.5197 11.347C22.4135 11.347 24.2916 9.91906 24.3134 7.70909C24.3231 6.49785 23.5903 5.57561 22.0016 4.81572C21.0399 4.32273 20.4507 3.99378 20.4563 3.49569C20.4563 3.05285 20.9553 2.5794 22.033 2.5794C22.9334 2.56495 23.5855 2.7715 24.0933 2.9874L24.34 3.10979L24.7132 0.802075Z" fill="#135191"/>
    </g>
    <path fill-rule="evenodd" clip-rule="evenodd" d="M28.3774 7.41248C28.6047 6.79878 29.4744 4.43581 29.4744 4.43581C29.4575 4.46386 29.7001 3.81872 29.8388 3.41923L30.025 4.33721C30.025 4.33721 30.5521 6.87953 30.6626 7.41248H28.3774ZM31.7719 0.549316H29.6446C28.9861 0.549316 28.4928 0.738864 28.2034 1.43245L24.115 11.1912H27.0056C27.0056 11.1912 27.4787 9.87964 27.5851 9.5915C27.9011 9.5915 30.7095 9.59575 31.1109 9.59575C31.1931 9.96889 31.4454 11.1912 31.4454 11.1912H33.9999L31.7719 0.549316Z" fill="#135191"/>
    <path fill-rule="evenodd" clip-rule="evenodd" d="M9.66914 0.54541L6.97444 7.80772L6.68667 6.33129C6.18529 4.63046 4.62232 2.78683 2.87476 1.86459L5.33892 11.1779L8.25126 11.1745L12.5847 0.54541H9.66914Z" fill="#135191"/>
    <path fill-rule="evenodd" clip-rule="evenodd" d="M4.4737 0.541504H0.0346611L0 0.763351C3.45321 1.64479 5.73843 3.77486 6.68637 6.33418L5.7215 1.44079C5.55464 0.765901 5.07181 0.565304 4.4737 0.541504Z" fill="#FAB10B"/>
</svg>